<svg width="512" height="512" viewBox="0 0 512 512" fill="none" xmlns="http://www.w3.org/2000/svg">
  <defs>
    <linearGradient id="vgMain" x1="0" y1="0" x2="1" y2="1">
      <stop offset="0%" stop-color="#E0D4F7"/>
      <stop offset="35%" stop-color="#9B8EC4"/>
      <stop offset="70%" stop-color="#7C6FBF"/>
      <stop offset="100%" stop-color="#5A4FA8"/>
    </linearGradient>
    <linearGradient id="vgRose" x1="0" y1="0" x2="1" y2="1">
      <stop offset="0%" stop-color="#F2A7C3"/>
      <stop offset="50%" stop-color="#E8A0C4"/>
      <stop offset="100%" stop-color="#D47BA8"/>
    </linearGradient>
    <linearGradient id="vgTeal" x1="0" y1="1" x2="1" y2="0">
      <stop offset="0%" stop-color="#5BC4A8"/>
      <stop offset="50%" stop-color="#7AD4B8"/>
      <stop offset="100%" stop-color="#A0E8D0"/>
    </linearGradient>
    <radialGradient id="vgIris" cx="0.45" cy="0.4" r="0.6">
      <stop offset="0%" stop-color="#C4B5E8"/>
      <stop offset="40%" stop-color="#9B8EC4"/>
      <stop offset="75%" stop-color="#6B5FB0"/>
      <stop offset="100%" stop-color="#4A3F8F"/>
    </radialGradient>
    <radialGradient id="vgPupil" cx="0.4" cy="0.38" r="0.55">
      <stop offset="0%" stop-color="#3D2E7A"/>
      <stop offset="100%" stop-color="#1A1440"/>
    </radialGradient>
    <linearGradient id="vgPulse" x1="0" y1="0.5" x2="1" y2="0.5">
      <stop offset="0%" stop-color="#5BC4A8" stop-opacity="0.2"/>
      <stop offset="20%" stop-color="#5BC4A8"/>
      <stop offset="40%" stop-color="#9B8EC4"/>
      <stop offset="60%" stop-color="#E8A0C4"/>
      <stop offset="80%" stop-color="#E8A0C4"/>
      <stop offset="100%" stop-color="#E8A0C4" stop-opacity="0.2"/>
    </linearGradient>
    <linearGradient id="vgShield" x1="0.5" y1="0" x2="0.5" y2="1">
      <stop offset="0%" stop-color="#9B8EC4" stop-opacity="0.08"/>
      <stop offset="100%" stop-color="#5A4FA8" stop-opacity="0.15"/>
    </linearGradient>
    <radialGradient id="vgEyeGlow" cx="0.5" cy="0.5" r="0.5">
      <stop offset="0%" stop-color="#9B8EC4" stop-opacity="0.12"/>
      <stop offset="100%" stop-color="#9B8EC4" stop-opacity="0"/>
    </radialGradient>
  </defs>

  <circle cx="256" cy="256" r="244" stroke="url(#vgMain)" stroke-width="3" stroke-opacity="0.2" fill="none"/>
  <circle cx="256" cy="256" r="236" stroke="url(#vgTeal)" stroke-width="1" stroke-opacity="0.12" fill="none" stroke-dasharray="8 16"/>

  <path d="M256 48 C256 48 410 94 410 94 C420 97 428 107 428 118 L428 264 C428 355 350 425 256 472 C162 425 84 355 84 264 L84 118 C84 107 92 97 102 94 C102 94 256 48 256 48Z" fill="url(#vgShield)" stroke="url(#vgMain)" stroke-width="4.5" stroke-linejoin="round"/>
  <path d="M256 76 C256 76 390 116 390 116 C398 118 404 126 404 134 L404 264 C404 342 334 404 256 446 C178 404 108 342 108 264 L108 134 C108 126 114 118 122 116 C122 116 256 76 256 76Z" fill="none" stroke="url(#vgRose)" stroke-width="1.5" stroke-opacity="0.25" stroke-linejoin="round"/>

  <ellipse cx="256" cy="258" rx="130" ry="80" fill="url(#vgEyeGlow)"/>

  <path d="M126 258 C126 258 180 168 256 168 C332 168 386 258 386 258" fill="none" stroke="url(#vgMain)" stroke-width="7" stroke-linecap="round"/>
  <path d="M126 258 C126 258 180 348 256 348 C332 348 386 258 386 258" fill="none" stroke="url(#vgMain)" stroke-width="7" stroke-linecap="round"/>

  <path d="M148 258 C148 258 196 184 256 184 C316 184 364 258 364 258" fill="none" stroke="url(#vgTeal)" stroke-width="2.5" stroke-linecap="round" stroke-opacity="0.35"/>
  <path d="M148 258 C148 258 196 332 256 332 C316 332 364 258 364 258" fill="none" stroke="url(#vgRose)" stroke-width="2.5" stroke-linecap="round" stroke-opacity="0.35"/>

  <line x1="196" y1="194" x2="186" y2="166" stroke="url(#vgTeal)" stroke-width="3.5" stroke-linecap="round" stroke-opacity="0.6"/>
  <line x1="256" y1="172" x2="256" y2="142" stroke="url(#vgMain)" stroke-width="3.5" stroke-linecap="round" stroke-opacity="0.7"/>
  <line x1="316" y1="194" x2="326" y2="166" stroke="url(#vgRose)" stroke-width="3.5" stroke-linecap="round" stroke-opacity="0.6"/>

  <circle cx="256" cy="258" r="68" fill="none" stroke="url(#vgMain)" stroke-width="5" stroke-opacity="0.8"/>
  <circle cx="256" cy="258" r="65" fill="url(#vgIris)" fill-opacity="0.35"/>
  <circle cx="256" cy="258" r="52" fill="none" stroke="#C4B5E8" stroke-width="1.5" stroke-opacity="0.4"/>
  <circle cx="256" cy="258" r="44" fill="none" stroke="url(#vgRose)" stroke-width="1" stroke-opacity="0.25"/>

  <line x1="256" y1="196" x2="256" y2="212" stroke="#C4B5E8" stroke-width="1.5" stroke-opacity="0.3" stroke-linecap="round"/>
  <line x1="256" y1="304" x2="256" y2="320" stroke="#C4B5E8" stroke-width="1.5" stroke-opacity="0.3" stroke-linecap="round"/>
  <line x1="194" y1="258" x2="210" y2="258" stroke="#C4B5E8" stroke-width="1.5" stroke-opacity="0.3" stroke-linecap="round"/>
  <line x1="302" y1="258" x2="318" y2="258" stroke="#C4B5E8" stroke-width="1.5" stroke-opacity="0.3" stroke-linecap="round"/>

  <circle cx="256" cy="258" r="32" fill="url(#vgPupil)"/>
  <circle cx="256" cy="258" r="30" fill="none" stroke="#9B8EC4" stroke-width="1.5" stroke-opacity="0.4"/>

  <circle cx="272" cy="244" r="10" fill="white" fill-opacity="0.35"/>
  <circle cx="278" cy="238" r="5" fill="white" fill-opacity="0.6"/>
  <circle cx="242" cy="272" r="4" fill="white" fill-opacity="0.12"/>

  <path d="M108 396 L168 396 L190 370 L212 420 L234 378 L252 396 L280 396 L300 372 L320 414 L338 396 L404 396" fill="none" stroke="url(#vgPulse)" stroke-width="4.5" stroke-linecap="round" stroke-linejoin="round"/>

  <circle cx="136" cy="162" r="4" fill="#5BC4A8" fill-opacity="0.5"/>
  <circle cx="376" cy="162" r="4" fill="#E8A0C4" fill-opacity="0.5"/>
  <circle cx="136" cy="370" r="3.5" fill="#E8A0C4" fill-opacity="0.4"/>
  <circle cx="376" cy="370" r="3.5" fill="#5BC4A8" fill-opacity="0.4"/>

  <circle cx="256" cy="78" r="5" fill="url(#vgMain)" fill-opacity="0.6"/>
  <circle cx="108" cy="138" r="3.5" fill="#5BC4A8" fill-opacity="0.5"/>
  <circle cx="404" cy="138" r="3.5" fill="#E8A0C4" fill-opacity="0.5"/>
</svg>